<mxfile host="app.diagrams.net" modified="2024-01-02T12:35:30.722Z" agent="Mozilla/5.0 (Macintosh; Intel Mac OS X 10_15_7) AppleWebKit/537.36 (KHTML, like Gecko) Chrome/120.0.0.0 Safari/537.36" etag="r7ERM7EPlHfuapAY7h9a" version="22.1.16" type="google">
  <diagram name="Page-1" id="l7g2a0mGHWfYqwEkcHt6">
    <mxGraphModel grid="1" page="0" gridSize="14" guides="1" tooltips="1" connect="1" arrows="1" fold="1" pageScale="1" pageWidth="1169" pageHeight="827" math="0" shadow="0">
      <root>
        <mxCell id="0" />
        <mxCell id="1" parent="0" />
        <mxCell id="j0UYTq0dvwLpuluXETwW-8" value="&lt;font face=&quot;Lucida Console&quot;&gt;&lt;b&gt;User&lt;/b&gt;&lt;/font&gt;" style="shape=umlActor;verticalLabelPosition=bottom;verticalAlign=top;html=1;outlineConnect=0;strokeColor=#FFD966;fontColor=#4D9900;strokeWidth=5;" vertex="1" parent="1">
          <mxGeometry x="80" y="234" width="30" height="60" as="geometry" />
        </mxCell>
        <mxCell id="j0UYTq0dvwLpuluXETwW-9" value="&lt;font face=&quot;Tahoma&quot;&gt;&lt;b&gt;User&lt;/b&gt;&lt;/font&gt;" style="shape=umlActor;verticalLabelPosition=bottom;verticalAlign=top;html=1;outlineConnect=0;strokeWidth=5;" vertex="1" parent="1">
          <mxGeometry x="80" y="380" width="30" height="60" as="geometry" />
        </mxCell>
        <mxCell id="j0UYTq0dvwLpuluXETwW-10" value="&lt;b&gt;&lt;font color=&quot;#ff8000&quot; face=&quot;Comic Sans MS&quot;&gt;User&lt;/font&gt;&lt;/b&gt;" style="shape=umlActor;verticalLabelPosition=bottom;verticalAlign=top;html=1;outlineConnect=0;strokeColor=#FF8000;strokeWidth=5;" vertex="1" parent="1">
          <mxGeometry x="80" y="560" width="30" height="60" as="geometry" />
        </mxCell>
        <mxCell id="j0UYTq0dvwLpuluXETwW-45" value="" style="rounded=0;orthogonalLoop=1;jettySize=auto;html=1;strokeColor=#23445D;strokeWidth=2;" edge="1" parent="1" source="j0UYTq0dvwLpuluXETwW-36" target="j0UYTq0dvwLpuluXETwW-44">
          <mxGeometry relative="1" as="geometry" />
        </mxCell>
        <mxCell id="j0UYTq0dvwLpuluXETwW-36" value="&lt;font size=&quot;1&quot; style=&quot;&quot;&gt;&lt;b style=&quot;font-size: 12px;&quot;&gt;Contextual analysis by Word2Vec&lt;/b&gt;&lt;/font&gt;" style="shape=ellipse;html=1;strokeWidth=2;whiteSpace=wrap;rounded=1;arcSize=12;size=0.23;strokeColor=#666666;fontColor=#333333;fillColor=#49E619;fontFamily=Tahoma;spacingTop=3;spacingRight=0;spacingLeft=7;" vertex="1" parent="1">
          <mxGeometry x="1022" y="313.31" width="154" height="78.69" as="geometry" />
        </mxCell>
        <mxCell id="j0UYTq0dvwLpuluXETwW-115" style="rounded=0;orthogonalLoop=1;jettySize=auto;html=1;strokeColor=#23445D;strokeWidth=2;exitX=0.317;exitY=0.985;exitDx=0;exitDy=0;exitPerimeter=0;entryX=0.94;entryY=0.23;entryDx=0;entryDy=0;entryPerimeter=0;" edge="1" parent="1" source="j0UYTq0dvwLpuluXETwW-44" target="j0UYTq0dvwLpuluXETwW-111">
          <mxGeometry relative="1" as="geometry">
            <mxPoint x="1064" y="588" as="targetPoint" />
          </mxGeometry>
        </mxCell>
        <mxCell id="j0UYTq0dvwLpuluXETwW-44" value="&lt;b&gt;&lt;font style=&quot;font-size: 12px;&quot;&gt;Identify antonyms &amp;amp; synonyms&lt;/font&gt;&lt;/b&gt;" style="shape=ellipse;html=1;strokeWidth=2;whiteSpace=wrap;rounded=1;arcSize=12;size=0.23;strokeColor=#666666;fontColor=#333333;fillColor=#2DCC0D;fontFamily=Tahoma;spacingLeft=7;" vertex="1" parent="1">
          <mxGeometry x="1022" y="450" width="154" height="82" as="geometry" />
        </mxCell>
        <mxCell id="j0UYTq0dvwLpuluXETwW-49" value="" style="edgeStyle=orthogonalEdgeStyle;rounded=0;orthogonalLoop=1;jettySize=auto;html=1;strokeColor=#23445D;noEdgeStyle=1;strokeWidth=2;entryX=0.5;entryY=1;entryDx=0;entryDy=0;exitX=0.617;exitY=-0.019;exitDx=0;exitDy=0;exitPerimeter=0;" edge="1" parent="1" source="ixXPNBnrvPAMtFnieXVM-1" target="j0UYTq0dvwLpuluXETwW-48">
          <mxGeometry relative="1" as="geometry">
            <mxPoint x="742" y="392" as="sourcePoint" />
          </mxGeometry>
        </mxCell>
        <mxCell id="j0UYTq0dvwLpuluXETwW-52" style="edgeStyle=orthogonalEdgeStyle;rounded=0;orthogonalLoop=1;jettySize=auto;html=1;exitX=1;exitY=0.5;exitDx=0;exitDy=0;strokeColor=#23445D;noEdgeStyle=1;entryX=0.331;entryY=0.034;entryDx=0;entryDy=0;entryPerimeter=0;strokeWidth=2;" edge="1" parent="1" source="j0UYTq0dvwLpuluXETwW-48" target="j0UYTq0dvwLpuluXETwW-36">
          <mxGeometry relative="1" as="geometry">
            <mxPoint x="1100" y="380" as="targetPoint" />
          </mxGeometry>
        </mxCell>
        <mxCell id="j0UYTq0dvwLpuluXETwW-48" value="&lt;b&gt;&lt;font style=&quot;font-size: 14px;&quot;&gt;Word Vectorisation&lt;/font&gt;&lt;/b&gt;" style="shape=ellipse;html=1;strokeWidth=2;whiteSpace=wrap;rounded=1;arcSize=12;size=0.23;strokeColor=#737373;fontColor=#333333;fillColor=#67FB05;align=center;fontFamily=Tahoma;" vertex="1" parent="1">
          <mxGeometry x="830" y="227.62" width="164" height="80.38" as="geometry" />
        </mxCell>
        <mxCell id="j0UYTq0dvwLpuluXETwW-58" value="&lt;font face=&quot;Comic Sans MS&quot; color=&quot;#333333&quot;&gt;&lt;b&gt;User&lt;/b&gt;&lt;/font&gt;" style="shape=umlActor;verticalLabelPosition=bottom;verticalAlign=top;html=1;outlineConnect=0;strokeColor=#FF6666;fontColor=#FFFFFF;fillColor=default;strokeWidth=5;" vertex="1" parent="1">
          <mxGeometry x="160" y="340" width="30" height="60" as="geometry" />
        </mxCell>
        <mxCell id="j0UYTq0dvwLpuluXETwW-60" value="&lt;font color=&quot;#ff0080&quot; face=&quot;Lucida Console&quot;&gt;&lt;b style=&quot;&quot;&gt;User&lt;/b&gt;&lt;/font&gt;" style="shape=umlActor;verticalLabelPosition=bottom;verticalAlign=top;html=1;outlineConnect=0;strokeColor=#FF3399;fontColor=#FFFFFF;fillColor=#f7fafd;strokeWidth=5;" vertex="1" parent="1">
          <mxGeometry x="130" y="460" width="30" height="60" as="geometry" />
        </mxCell>
        <mxCell id="j0UYTq0dvwLpuluXETwW-62" value="Actor" style="shape=umlActor;verticalLabelPosition=bottom;verticalAlign=top;html=1;outlineConnect=0;strokeColor=#999999;fontColor=#FFFFFF;fillColor=default;strokeWidth=5;" vertex="1" parent="1">
          <mxGeometry x="180" y="200" width="30" height="60" as="geometry" />
        </mxCell>
        <mxCell id="j0UYTq0dvwLpuluXETwW-63" value="Actor" style="shape=umlActor;verticalLabelPosition=bottom;verticalAlign=top;html=1;outlineConnect=0;strokeColor=#663300;fontColor=#FFFFFF;fillColor=none;strokeWidth=5;" vertex="1" parent="1">
          <mxGeometry x="182" y="600" width="28" height="60" as="geometry" />
        </mxCell>
        <mxCell id="j0UYTq0dvwLpuluXETwW-65" value="&lt;font style=&quot;font-size: 20px;&quot;&gt;Interface&lt;/font&gt;" style="shape=dataStorage;fixedSize=1;strokeColor=#006EAF;fillColor=#1ba1e2;fontStyle=1;labelPosition=center;verticalLabelPosition=middle;align=center;verticalAlign=middle;html=1;horizontal=0;fontSize=23;whiteSpace=wrap;size=46;labelBorderColor=default;labelBackgroundColor=none;spacingTop=0;spacingLeft=0;spacingBottom=44;strokeWidth=3;perimeterSpacing=0;fontFamily=Tahoma;fontColor=#ffffff;" vertex="1" parent="1">
          <mxGeometry x="280" y="268.81" width="112" height="320" as="geometry" />
        </mxCell>
        <mxCell id="j0UYTq0dvwLpuluXETwW-67" value="" style="endArrow=classic;startArrow=classic;html=1;rounded=0;strokeColor=#23445D;strokeWidth=2;entryX=0.233;entryY=0.122;entryDx=0;entryDy=0;entryPerimeter=0;" edge="1" parent="1" target="j0UYTq0dvwLpuluXETwW-65">
          <mxGeometry width="50" height="50" relative="1" as="geometry">
            <mxPoint x="210" y="240" as="sourcePoint" />
            <mxPoint x="300" y="310" as="targetPoint" />
          </mxGeometry>
        </mxCell>
        <mxCell id="j0UYTq0dvwLpuluXETwW-69" value="" style="edgeStyle=none;orthogonalLoop=1;jettySize=auto;html=1;endArrow=classic;startArrow=classic;endSize=8;startSize=8;rounded=0;strokeColor=#23445D;strokeWidth=2;" edge="1" parent="1">
          <mxGeometry width="100" relative="1" as="geometry">
            <mxPoint x="110" y="270" as="sourcePoint" />
            <mxPoint x="290" y="360" as="targetPoint" />
            <Array as="points" />
          </mxGeometry>
        </mxCell>
        <mxCell id="j0UYTq0dvwLpuluXETwW-70" value="" style="endArrow=classic;startArrow=classic;html=1;rounded=0;strokeColor=#23445D;strokeWidth=2;" edge="1" parent="1" source="j0UYTq0dvwLpuluXETwW-58">
          <mxGeometry width="50" height="50" relative="1" as="geometry">
            <mxPoint x="200" y="400" as="sourcePoint" />
            <mxPoint x="280" y="400" as="targetPoint" />
          </mxGeometry>
        </mxCell>
        <mxCell id="j0UYTq0dvwLpuluXETwW-72" value="" style="endArrow=classic;startArrow=classic;html=1;rounded=0;strokeColor=#23445D;strokeWidth=2;" edge="1" parent="1" source="j0UYTq0dvwLpuluXETwW-9">
          <mxGeometry width="50" height="50" relative="1" as="geometry">
            <mxPoint x="150" y="440" as="sourcePoint" />
            <mxPoint x="280" y="440" as="targetPoint" />
          </mxGeometry>
        </mxCell>
        <mxCell id="j0UYTq0dvwLpuluXETwW-74" value="" style="endArrow=classic;startArrow=classic;html=1;rounded=0;strokeColor=#23445D;strokeWidth=2;entryX=0.05;entryY=0.649;entryDx=0;entryDy=0;entryPerimeter=0;" edge="1" parent="1" source="j0UYTq0dvwLpuluXETwW-60" target="j0UYTq0dvwLpuluXETwW-65">
          <mxGeometry width="50" height="50" relative="1" as="geometry">
            <mxPoint x="200" y="550" as="sourcePoint" />
            <mxPoint x="280" y="480" as="targetPoint" />
          </mxGeometry>
        </mxCell>
        <mxCell id="j0UYTq0dvwLpuluXETwW-75" value="" style="endArrow=classic;startArrow=classic;html=1;rounded=0;strokeColor=#23445D;strokeWidth=2;entryX=0.125;entryY=0.787;entryDx=0;entryDy=0;entryPerimeter=0;" edge="1" parent="1" target="j0UYTq0dvwLpuluXETwW-65">
          <mxGeometry width="50" height="50" relative="1" as="geometry">
            <mxPoint x="110" y="600" as="sourcePoint" />
            <mxPoint x="290" y="520" as="targetPoint" />
          </mxGeometry>
        </mxCell>
        <mxCell id="j0UYTq0dvwLpuluXETwW-76" value="" style="endArrow=classic;startArrow=classic;html=1;rounded=0;strokeColor=#23445D;strokeWidth=2;entryX=0.267;entryY=0.915;entryDx=0;entryDy=0;entryPerimeter=0;" edge="1" parent="1" target="j0UYTq0dvwLpuluXETwW-65">
          <mxGeometry width="50" height="50" relative="1" as="geometry">
            <mxPoint x="210" y="630" as="sourcePoint" />
            <mxPoint x="294" y="574" as="targetPoint" />
          </mxGeometry>
        </mxCell>
        <mxCell id="j0UYTq0dvwLpuluXETwW-94" value="&lt;b&gt;User&lt;/b&gt;" style="text;strokeColor=none;align=center;fillColor=none;html=1;verticalAlign=middle;whiteSpace=wrap;rounded=0;fontColor=#212121;" vertex="1" parent="1">
          <mxGeometry x="160" y="260" width="70" height="30" as="geometry" />
        </mxCell>
        <mxCell id="j0UYTq0dvwLpuluXETwW-96" value="&lt;b&gt;User&lt;/b&gt;" style="text;strokeColor=none;align=center;fillColor=none;html=1;verticalAlign=middle;whiteSpace=wrap;rounded=0;fontColor=#212121;" vertex="1" parent="1">
          <mxGeometry x="160" y="660" width="70" height="30" as="geometry" />
        </mxCell>
        <mxCell id="j0UYTq0dvwLpuluXETwW-111" value="&lt;font size=&quot;1&quot; style=&quot;&quot;&gt;&lt;b style=&quot;font-size: 15px;&quot;&gt;Pick best match&lt;/b&gt;&lt;/font&gt;" style="shape=ellipse;html=1;strokeWidth=2;whiteSpace=wrap;rounded=1;arcSize=12;size=0.23;strokeColor=#666666;fontColor=#333333;fillColor=#69BD31;fontFamily=Tahoma;" vertex="1" parent="1">
          <mxGeometry x="826" y="556" width="168" height="74" as="geometry" />
        </mxCell>
        <mxCell id="j0UYTq0dvwLpuluXETwW-114" style="rounded=0;orthogonalLoop=1;jettySize=auto;html=1;strokeColor=#23445D;strokeWidth=2;entryX=0.599;entryY=0.992;entryDx=0;entryDy=0;entryPerimeter=0;exitX=0.608;exitY=0.015;exitDx=0;exitDy=0;exitPerimeter=0;" edge="1" parent="1" source="j0UYTq0dvwLpuluXETwW-111" target="ixXPNBnrvPAMtFnieXVM-1">
          <mxGeometry relative="1" as="geometry">
            <mxPoint x="910" y="546" as="sourcePoint" />
            <mxPoint x="740" y="470" as="targetPoint" />
          </mxGeometry>
        </mxCell>
        <mxCell id="j0UYTq0dvwLpuluXETwW-119" value="&lt;font style=&quot;font-size: 20px;&quot;&gt;Gensim&amp;nbsp;&lt;/font&gt;" style="shape=dataStorage;whiteSpace=wrap;html=1;fixedSize=1;labelBackgroundColor=none;fillColor=#008a00;fontColor=#ffffff;strokeColor=#005700;horizontal=0;fontSize=20;spacingLeft=0;spacingBottom=16;labelBorderColor=default;strokeWidth=3;fontStyle=1;fontFamily=Tahoma;size=20;" vertex="1" parent="1">
          <mxGeometry x="706" y="268.81" width="84" height="320" as="geometry" />
        </mxCell>
        <mxCell id="j0UYTq0dvwLpuluXETwW-125" value="&lt;b&gt;&lt;font color=&quot;#333333&quot;&gt;Backend&lt;/font&gt;&lt;/b&gt;" style="rounded=0;whiteSpace=wrap;html=1;strokeColor=#b85450;fillColor=#f8cecc;horizontal=0;labelBorderColor=none;fontFamily=Tahoma;dashed=1;strokeWidth=3;spacingTop=11;gradientColor=#ea6b66;gradientDirection=east;" vertex="1" parent="1">
          <mxGeometry x="588.17" y="351.81" width="42" height="154" as="geometry" />
        </mxCell>
        <mxCell id="j0UYTq0dvwLpuluXETwW-130" value="" style="endArrow=classic;html=1;rounded=0;strokeColor=#23445D;strokeWidth=2;entryX=-0.095;entryY=0.308;entryDx=0;entryDy=0;entryPerimeter=0;exitX=0.742;exitY=0.227;exitDx=0;exitDy=0;exitPerimeter=0;" edge="1" parent="1" source="j0UYTq0dvwLpuluXETwW-65" target="j0UYTq0dvwLpuluXETwW-127">
          <mxGeometry width="50" height="50" relative="1" as="geometry">
            <mxPoint x="384.89133889172786" y="355.6946685482085" as="sourcePoint" />
            <mxPoint x="448" y="406" as="targetPoint" />
          </mxGeometry>
        </mxCell>
        <mxCell id="j0UYTq0dvwLpuluXETwW-127" value="&lt;font face=&quot;Tahoma&quot;&gt;&lt;b&gt;Frontend&lt;/b&gt;&lt;/font&gt;" style="rounded=0;whiteSpace=wrap;html=1;strokeColor=#ae4132;fillColor=#fad9d5;horizontal=0;dashed=1;strokeWidth=3;labelBorderColor=none;spacingBottom=8;" vertex="1" parent="1">
          <mxGeometry x="476" y="351.81" width="42" height="154" as="geometry" />
        </mxCell>
        <mxCell id="j0UYTq0dvwLpuluXETwW-136" value="" style="orthogonalLoop=1;jettySize=auto;html=1;rounded=0;strokeColor=#23445D;exitX=1;exitY=0.328;exitDx=0;exitDy=0;strokeWidth=2;exitPerimeter=0;entryX=-0.012;entryY=0.323;entryDx=0;entryDy=0;entryPerimeter=0;" edge="1" parent="1" source="j0UYTq0dvwLpuluXETwW-125" target="j0UYTq0dvwLpuluXETwW-119">
          <mxGeometry width="100" relative="1" as="geometry">
            <mxPoint x="560" y="392" as="sourcePoint" />
            <mxPoint x="686" y="392" as="targetPoint" />
          </mxGeometry>
        </mxCell>
        <mxCell id="j0UYTq0dvwLpuluXETwW-139" value="&lt;font style=&quot;font-size: 22px;&quot; face=&quot;Tahoma&quot;&gt;&lt;b style=&quot;&quot;&gt;Flask&lt;/b&gt;&lt;/font&gt;" style="ellipse;whiteSpace=wrap;html=1;aspect=fixed;strokeColor=#A50040;fontColor=#ffffff;fillColor=#D12A7D;strokeWidth=3;" vertex="1" parent="1">
          <mxGeometry x="502.81" y="378.62" width="100.38" height="100.38" as="geometry" />
        </mxCell>
        <mxCell id="j0UYTq0dvwLpuluXETwW-141" value="" style="orthogonalLoop=1;jettySize=auto;html=1;rounded=0;strokeColor=#23445D;exitX=-0.027;exitY=0.539;exitDx=0;exitDy=0;exitPerimeter=0;entryX=1.048;entryY=0.569;entryDx=0;entryDy=0;entryPerimeter=0;fontStyle=1;strokeWidth=2;" edge="1" parent="1" source="j0UYTq0dvwLpuluXETwW-119" target="j0UYTq0dvwLpuluXETwW-125">
          <mxGeometry width="100" relative="1" as="geometry">
            <mxPoint x="660" y="476" as="sourcePoint" />
            <mxPoint x="560" y="476" as="targetPoint" />
          </mxGeometry>
        </mxCell>
        <mxCell id="j0UYTq0dvwLpuluXETwW-142" value="" style="orthogonalLoop=1;jettySize=auto;html=1;rounded=0;strokeColor=#23445D;entryX=0.607;entryY=0.49;entryDx=0;entryDy=0;entryPerimeter=0;strokeWidth=2;" edge="1" parent="1" target="j0UYTq0dvwLpuluXETwW-65">
          <mxGeometry width="100" relative="1" as="geometry">
            <mxPoint x="476" y="460" as="sourcePoint" />
            <mxPoint x="364" y="448" as="targetPoint" />
          </mxGeometry>
        </mxCell>
        <mxCell id="j0UYTq0dvwLpuluXETwW-143" value="&lt;font style=&quot;font-size: 11px;&quot; color=&quot;#333333&quot;&gt;Formatted request&lt;/font&gt;" style="text;html=1;strokeColor=none;fillColor=none;align=center;verticalAlign=middle;whiteSpace=wrap;rounded=0;fontColor=#FFFFFF;fontStyle=1;fontFamily=Tahoma;rotation=-15;fontSize=11;" vertex="1" parent="1">
          <mxGeometry x="630.17" y="355" width="69.83" height="30" as="geometry" />
        </mxCell>
        <mxCell id="j0UYTq0dvwLpuluXETwW-150" value="&lt;font size=&quot;1&quot; face=&quot;Tahoma&quot; color=&quot;#333333&quot;&gt;&lt;span style=&quot;font-size: 13px;&quot;&gt;Antonym/other&lt;/span&gt;&lt;/font&gt;" style="text;html=1;strokeColor=none;fillColor=none;align=center;verticalAlign=middle;whiteSpace=wrap;rounded=0;fontColor=#FFFFFF;rotation=15;fontStyle=1" vertex="1" parent="1">
          <mxGeometry x="359.76" y="407.81" width="113.02" height="42" as="geometry" />
        </mxCell>
        <mxCell id="ixXPNBnrvPAMtFnieXVM-1" value="&lt;font size=&quot;1&quot; face=&quot;Tahoma&quot;&gt;&lt;b style=&quot;font-size: 20px;&quot;&gt;Word2Vec&lt;/b&gt;&lt;/font&gt;" style="ellipse;whiteSpace=wrap;html=1;aspect=fixed;fillColor=#4F9C40;strokeWidth=3;dashed=1;fontColor=#ffffff;strokeColor=#2D7600;" vertex="1" parent="1">
          <mxGeometry x="836.08" y="372.89000000000004" width="111.84" height="111.84" as="geometry" />
        </mxCell>
        <mxCell id="ixXPNBnrvPAMtFnieXVM-2" value="" style="edgeStyle=none;orthogonalLoop=1;jettySize=auto;html=1;endArrow=classic;startArrow=classic;endSize=8;startSize=8;rounded=0;exitX=0.786;exitY=0.485;exitDx=0;exitDy=0;exitPerimeter=0;strokeWidth=2;entryX=0.008;entryY=0.448;entryDx=0;entryDy=0;entryPerimeter=0;" edge="1" parent="1" source="j0UYTq0dvwLpuluXETwW-119" target="ixXPNBnrvPAMtFnieXVM-1">
          <mxGeometry width="100" relative="1" as="geometry">
            <mxPoint x="756" y="426.5" as="sourcePoint" />
            <mxPoint x="826" y="425" as="targetPoint" />
            <Array as="points" />
          </mxGeometry>
        </mxCell>
        <mxCell id="ixXPNBnrvPAMtFnieXVM-14" value="&lt;b&gt;&lt;font style=&quot;font-size: 13px;&quot; face=&quot;Tahoma&quot;&gt;Answer&lt;/font&gt;&lt;/b&gt;" style="text;html=1;align=center;verticalAlign=middle;resizable=0;points=[];autosize=1;strokeColor=none;fillColor=none;rotation=15;" vertex="1" parent="1">
          <mxGeometry x="623.09" y="440" width="84" height="28" as="geometry" />
        </mxCell>
        <mxCell id="ixXPNBnrvPAMtFnieXVM-19" value="" style="endArrow=classic;html=1;rounded=0;exitX=0.817;exitY=0.691;exitDx=0;exitDy=0;exitPerimeter=0;strokeWidth=2;entryX=0.67;entryY=0.687;entryDx=0;entryDy=0;entryPerimeter=0;" edge="1" parent="1" target="j0UYTq0dvwLpuluXETwW-65">
          <mxGeometry width="50" height="50" relative="1" as="geometry">
            <mxPoint x="476" y="460" as="sourcePoint" />
            <mxPoint x="364" y="507" as="targetPoint" />
          </mxGeometry>
        </mxCell>
        <mxCell id="ixXPNBnrvPAMtFnieXVM-23" value="&lt;b&gt;&lt;font face=&quot;Tahoma&quot;&gt;HTML POST query&lt;/font&gt;&lt;/b&gt;" style="text;html=1;strokeColor=none;fillColor=none;align=center;verticalAlign=middle;whiteSpace=wrap;rounded=0;rotation=30;" vertex="1" parent="1">
          <mxGeometry x="366.04" y="340" width="109.96" height="28" as="geometry" />
        </mxCell>
        <mxCell id="ixXPNBnrvPAMtFnieXVM-25" value="&lt;font size=&quot;1&quot; face=&quot;Tahoma&quot;&gt;&lt;b style=&quot;font-size: 13px;&quot;&gt;Error message&lt;/b&gt;&lt;/font&gt;" style="text;html=1;strokeColor=none;fillColor=none;align=center;verticalAlign=middle;whiteSpace=wrap;rounded=0;rotation=-15;" vertex="1" parent="1">
          <mxGeometry x="359.76" y="474" width="116" height="30" as="geometry" />
        </mxCell>
        <mxCell id="ixXPNBnrvPAMtFnieXVM-28" style="edgeStyle=orthogonalEdgeStyle;rounded=0;orthogonalLoop=1;jettySize=auto;html=1;exitX=0;exitY=0;exitDx=0;exitDy=0;entryX=0.732;entryY=0.79;entryDx=0;entryDy=0;entryPerimeter=0;" edge="1" parent="1" source="ixXPNBnrvPAMtFnieXVM-25" target="j0UYTq0dvwLpuluXETwW-65">
          <mxGeometry relative="1" as="geometry" />
        </mxCell>
        <mxCell id="ixXPNBnrvPAMtFnieXVM-29" value="&lt;font size=&quot;1&quot; face=&quot;Tahoma&quot;&gt;&lt;b style=&quot;font-size: 15px;&quot;&gt;Process request&lt;/b&gt;&lt;/font&gt;" style="text;html=1;strokeColor=none;fillColor=none;align=center;verticalAlign=middle;rounded=0;whiteSpace=wrap;labelBorderColor=default;dashed=1;" vertex="1" parent="1">
          <mxGeometry x="490" y="294.62" width="126" height="30" as="geometry" />
        </mxCell>
        <mxCell id="VVtDdKMKw9_hFPbYGYoP-1" value="" style="endArrow=none;html=1;rounded=0;exitX=0.429;exitY=0.001;exitDx=0;exitDy=0;exitPerimeter=0;strokeWidth=15;strokeColor=#1BA1E2;" edge="1" parent="1" source="j0UYTq0dvwLpuluXETwW-65">
          <mxGeometry width="50" height="50" relative="1" as="geometry">
            <mxPoint x="322" y="280" as="sourcePoint" />
            <mxPoint x="1232" y="168" as="targetPoint" />
          </mxGeometry>
        </mxCell>
        <mxCell id="VVtDdKMKw9_hFPbYGYoP-2" value="" style="endArrow=none;html=1;rounded=0;exitX=0.42;exitY=1.001;exitDx=0;exitDy=0;exitPerimeter=0;strokeWidth=15;strokeColor=#1BA1E2;" edge="1" parent="1" source="j0UYTq0dvwLpuluXETwW-65">
          <mxGeometry width="50" height="50" relative="1" as="geometry">
            <mxPoint x="366.03999999999996" y="644" as="sourcePoint" />
            <mxPoint x="1232" y="700" as="targetPoint" />
          </mxGeometry>
        </mxCell>
        <mxCell id="VVtDdKMKw9_hFPbYGYoP-3" value="" style="endArrow=classic;startArrow=classic;html=1;rounded=0;" edge="1" parent="1">
          <mxGeometry width="50" height="50" relative="1" as="geometry">
            <mxPoint x="602" y="526" as="sourcePoint" />
            <mxPoint x="652" y="476" as="targetPoint" />
          </mxGeometry>
        </mxCell>
        <mxCell id="VVtDdKMKw9_hFPbYGYoP-4" value="" style="endArrow=none;html=1;rounded=0;strokeWidth=10;strokeColor=#1BA1E2;" edge="1" parent="1">
          <mxGeometry width="50" height="50" relative="1" as="geometry">
            <mxPoint x="1232" y="700" as="sourcePoint" />
            <mxPoint x="1232" y="168" as="targetPoint" />
          </mxGeometry>
        </mxCell>
      </root>
    </mxGraphModel>
  </diagram>
</mxfile>
